<?xml version="1.0" encoding="UTF-8"?>
<svg width="752pt" height="752pt" version="1.1" viewBox="0 0 752 752" xmlns="http://www.w3.org/2000/svg">
 <g>
  <path d="m376 183.68c-106.03 0-192.32 86.297-192.32 192.32 0 106.03 86.297 192.46 192.32 192.46 106.03 0 192.46-86.43 192.46-192.46 0-106.03-86.43-192.32-192.46-192.32zm-8.8125 181.41c-0.78906 1.7109-2.5 2.6328-4.3398 2.6328h-34.598v113.53c0 2.7617-2.2383 5-5 5h-52.621c-2.7617 0-5-2.2383-5-5v-113.53h-34.332c-1.8398 0-3.5508-1.0508-4.3398-2.6328-0.92188-1.5781-0.79297-3.5508 0.39453-5.1289l65.773-92.086c1.8398-2.6328 6.1836-2.6328 8.0234 0l65.773 92.086c1.0547 1.5781 1.1875 3.5508 0.26562 5.1289zm157.86 21.84c0.78906 1.7109 0.65625 3.6836-0.39453 5.1289l-65.773 92.086c-0.92188 1.3164-2.3672 2.1055-3.9453 2.1055s-3.0273-0.78906-3.9453-2.1055l-65.773-92.086c-1.0508-1.4453-1.1836-3.4219-0.39453-5.1289 0.78906-1.7109 2.5-2.6328 4.3398-2.6328h34.598l-0.003906-113.53c0-2.7617 2.2383-5 5-5h52.621c2.7617 0 5 2.2383 5 5v113.53h34.332c1.8398 0 3.5508 0.92188 4.3398 2.6328z"/>
  <path d="m476.38 389.16v-113.53h-42.754v113.53c0 2.7617-2.2383 5-5 5h-29.863l56.172 78.535 56.172-78.668h-29.859c-2.7617 0.13281-4.8672-2.1055-4.8672-4.8672z"/>
  <path d="m240.9 357.98h29.863c2.7617 0 5 2.2383 5 5v113.53h42.754v-113.66c0-2.7617 2.2383-5 5-5h29.863l-56.309-78.535z"/>
 </g>
</svg>
